<svg width="32" height="32" viewBox="0 0 32 32" fill="none" xmlns="http://www.w3.org/2000/svg">
    <path d="M15.7136 0.746137C13.2882 0.903338 10.7415 1.77468 8.72935 3.13559C6.60489 4.57285 4.9206 6.51316 3.82918 8.77685C3.23181 10.0165 2.85902 11.1843 2.60301 12.6215C2.40988 13.6995 2.36945 15.3254 2.5042 16.574C2.68386 18.2538 3.29918 20.266 4.1301 21.9099L4.36815 22.3725L3.8157 24.0208C3.51028 24.9281 2.95783 26.581 2.58504 27.6948C2.20776 28.8132 1.90234 29.7564 1.90234 29.8013C1.90234 29.8418 1.96073 29.9001 2.0326 29.9271C2.14937 29.972 2.16285 29.99 2.14039 30.1292C2.11344 30.2729 2.11793 30.2819 2.22124 30.2505C2.40539 30.1921 6.42523 28.912 8.123 28.3641C9.01231 28.0811 9.77586 27.8475 9.82077 27.8475C9.86119 27.8475 10.0543 27.9239 10.2475 28.0227C11.8913 28.8491 13.643 29.3432 15.5069 29.5139C16.2435 29.5768 17.7437 29.5453 18.4668 29.442C22.7517 28.8491 26.3987 26.4821 28.6444 22.8486C29.3765 21.6628 30.0727 20.01 30.4455 18.5727C30.8003 17.1938 30.971 15.4826 30.8767 14.1621C30.6342 10.6543 29.2777 7.54619 26.9197 5.10284C24.6336 2.73585 21.7231 1.27164 18.4084 0.826983C17.9233 0.764103 16.2435 0.710205 15.7136 0.746137ZM17.4697 3.81829C19.0732 3.94854 20.3892 4.30337 21.777 4.98157C23.6589 5.90681 25.2354 7.29018 26.4032 9.05083C27.3015 10.4028 27.8539 11.858 28.0695 13.448C28.1728 14.2025 28.1728 15.7296 28.0695 16.5021C27.3374 21.9323 22.855 26.1183 17.4158 26.4597C15.498 26.5765 13.7149 26.2621 11.9722 25.4985C11.4916 25.2874 10.6966 24.8562 10.4496 24.6766C10.3732 24.6182 10.2744 24.5688 10.2295 24.5688C10.1891 24.5688 9.23239 24.8607 8.10953 25.22C6.98667 25.5794 6.06143 25.8713 6.05694 25.8623C6.04795 25.8533 6.33541 24.9775 6.69023 23.9175C7.04505 22.8531 7.337 21.9323 7.337 21.8604C7.337 21.7886 7.25615 21.6224 7.13937 21.4562C5.26195 18.7658 4.65111 15.0514 5.56288 11.9029C5.76499 11.2202 5.93117 10.8025 6.25905 10.1512C7.15734 8.39508 8.52723 6.86349 10.2115 5.74063C12.336 4.32133 14.9904 3.62067 17.4697 3.81829Z" fill="currentColor"/>
    <path d="M11.5207 7.96839C11.4174 7.99983 11.2692 8.07169 11.1839 8.1211C10.9548 8.26482 10.2901 8.97447 10.0835 9.29786C9.42322 10.3264 9.275 11.6963 9.67025 13.0347C9.97118 14.0453 10.3395 14.8178 11.0132 15.8599C11.8666 17.1714 12.419 17.881 13.3038 18.7928C14.6333 20.1627 15.7517 20.9307 17.4674 21.6449C18.734 22.1748 19.6682 22.4758 20.1937 22.5297C20.5575 22.5656 21.3525 22.4398 21.8196 22.2692C22.4664 22.0356 23.2075 21.5146 23.4949 21.0924C23.7824 20.6612 24.0788 19.6866 24.1148 19.0398L24.1417 18.6131L24.0025 18.4514C23.9037 18.3436 23.4994 18.1011 22.682 17.6609C20.7417 16.6189 20.4946 16.5201 20.1892 16.6818C20.1129 16.7177 19.8254 17.0097 19.5559 17.3241C18.7565 18.2538 18.5903 18.4155 18.4555 18.4155C18.2849 18.4155 17.1665 17.8451 16.6455 17.4948C16.0391 17.0815 15.6439 16.7492 15.1453 16.2327C14.5525 15.6173 13.9102 14.737 13.5509 14.0498L13.47 13.8881L13.7934 13.5333C14.2201 13.0797 14.3953 12.8057 14.5659 12.3296C14.7411 11.8445 14.7321 11.6963 14.4761 11.0271C14.247 10.4297 14.0629 9.93564 13.744 9.07778C13.4835 8.37262 13.2904 8.08517 13.0209 7.99983C12.7649 7.92347 11.7318 7.90102 11.5207 7.96839Z" fill="currentColor"/>
</svg>
