<svg width="30" height="30" viewBox="0 0 30 30" fill="none"
     xmlns="http://www.w3.org/2000/svg">
    <path d="M18.0507 14.5781L17.8613 16.0949C17.8293 16.3482 17.6141 16.5388 17.3589 16.5388H14.8955V22.8801C14.6357 22.9035 14.3725 22.9155 14.1064 22.9155C13.5113 22.9155 12.9305 22.8562 12.3692 22.7432V16.5388H10.4746C10.3006 16.5388 10.1587 16.3967 10.1587 16.2227V14.3248C10.1587 14.1508 10.3006 14.0087 10.4746 14.0087H12.3692V11.1624C12.3692 9.41572 13.7831 8 15.5278 8H17.7383C17.9122 8 18.0541 8.14209 18.0541 8.31613V10.214C18.0541 10.3881 17.9122 10.5301 17.7383 10.5301H16.159C15.4614 10.5301 14.8961 11.0962 14.8961 11.7952V14.0092H17.5489C17.8533 14.0092 18.0885 14.2763 18.0513 14.5787L18.0507 14.5781Z"
          fill="currentColor"/>
</svg>
