<svg width="30" height="30" viewBox="0 0 30 30" fill="none"
     xmlns="http://www.w3.org/2000/svg">
    <path d="M15.3492 7.01333C16.2224 7 17.0891 7.00693 17.9554 7C17.9842 8.08332 18.4237 9.05836 19.1229 9.78057L19.1219 9.7795C19.8745 10.4574 20.8538 10.897 21.9334 10.9716L21.9483 10.9727V13.6589C20.9285 13.6333 19.9694 13.398 19.1048 12.9937L19.1486 13.0119C18.7304 12.8108 18.3767 12.6043 18.0407 12.3739L18.0684 12.3921C18.062 14.3384 18.0748 16.2847 18.0551 18.2242C18.0002 19.2125 17.6716 20.114 17.1446 20.8666L17.1553 20.85C16.2741 22.1121 14.8467 22.9404 13.2236 22.9895H13.2162C13.1506 22.9927 13.0732 22.9943 12.9953 22.9943C12.0726 22.9943 11.2101 22.7372 10.4751 22.2907L10.4964 22.303C9.15866 21.4981 8.23589 20.1209 8.06521 18.5191L8.06307 18.4973C8.04974 18.1639 8.04334 17.8305 8.05667 17.5041C8.31803 14.955 10.4537 12.9831 13.0498 12.9831C13.3415 12.9831 13.6274 13.0081 13.9053 13.0556L13.8754 13.0513C13.8888 14.0376 13.8488 15.0243 13.8488 16.0106C13.6231 15.929 13.3629 15.8815 13.0914 15.8815C12.095 15.8815 11.2474 16.5184 10.9338 17.4075L10.929 17.4235C10.858 17.6513 10.817 17.9132 10.817 18.1842C10.817 18.294 10.8239 18.4028 10.8367 18.5095L10.8356 18.4967C11.0127 19.588 11.9483 20.4116 13.0764 20.4116C13.109 20.4116 13.141 20.4111 13.173 20.4095H13.1682C13.9485 20.386 14.6259 19.9662 15.0089 19.3459L15.0142 19.3363C15.1566 19.1379 15.2543 18.8978 15.2868 18.637L15.2873 18.6295C15.354 17.4363 15.3273 16.2501 15.3337 15.0569C15.3401 12.3707 15.3273 9.69096 15.3471 7.01173L15.3492 7.01333Z"
          fill="currentColor"/>
</svg>
