<svg width="30" height="30" viewBox="0 0 30 30" fill="none"
     xmlns="http://www.w3.org/2000/svg">
    <path d="M19.3552 6.64209H10.6874C8.45396 6.64209 6.64258 8.45347 6.64258 10.687V19.3547C6.64258 21.5882 8.45396 23.3996 10.6874 23.3996H19.3552C21.5887 23.3996 23.4001 21.5882 23.4001 19.3547V10.687C23.4001 8.45347 21.5887 6.64209 19.3552 6.64209ZM21.9553 19.0653C21.9553 20.6604 20.6609 21.9548 19.0658 21.9548H10.9761C9.38096 21.9548 8.08654 20.6604 8.08654 19.0653V10.9756C8.08654 9.38047 9.38096 8.08605 10.9761 8.08605H19.0658C20.6609 8.08605 21.9553 9.38047 21.9553 10.9756V19.0653Z"
          fill="currentColor"/>
    <path d="M15.0298 10.6865C12.6379 10.6865 10.6963 12.6282 10.6963 15.02C10.6963 17.4119 12.6379 19.3535 15.0298 19.3535C17.4216 19.3535 19.3633 17.4119 19.3633 15.02C19.3633 12.6282 17.4216 10.6865 15.0298 10.6865ZM15.0298 17.9096C13.4379 17.9096 12.1403 16.6119 12.1403 15.02C12.1403 13.4281 13.4379 12.1305 15.0298 12.1305C16.6217 12.1305 17.9193 13.4281 17.9193 15.02C17.9193 16.6119 16.6217 17.9096 15.0298 17.9096Z"
          fill="currentColor"/>
    <path d="M19.6519 11.2637C19.1743 11.2637 18.7852 10.8745 18.7852 10.397C18.7852 9.9194 19.1743 9.53027 19.6519 9.53027C20.1294 9.53027 20.5186 9.9194 20.5186 10.397C20.5186 10.8745 20.1294 11.2637 19.6519 11.2637Z"
          fill="currentColor"/>
</svg>
