<svg width="30" height="30" viewBox="0 0 30 30" fill="none"
     xmlns="http://www.w3.org/2000/svg">
    <path d="M9.71184 11.7953C10.739 11.7953 11.5716 10.9626 11.5716 9.93547C11.5716 8.90834 10.739 8.07568 9.71184 8.07568C8.6847 8.07568 7.85205 8.90834 7.85205 9.93547C7.85205 10.9626 8.6847 11.7953 9.71184 11.7953Z"
          fill="currentColor"/>
    <path d="M11.1229 13.0347H8.30092C8.22426 13.0347 8.16211 13.0968 8.16211 13.1735V22.1941C8.16211 22.2707 8.22426 22.3329 8.30092 22.3329H11.1229C11.1996 22.3329 11.2618 22.2707 11.2618 22.1941V13.1735C11.2618 13.0968 11.1996 13.0347 11.1229 13.0347Z"
          fill="currentColor"/>
    <path d="M21.7997 16.4442V21.7132C21.7997 22.0541 21.5206 22.3332 21.1798 22.3332H19.32C18.9791 22.3332 18.7 22.0541 18.7 21.7132V17.3737C18.7 16.5183 18.006 15.8243 17.1506 15.8243C16.2952 15.8243 15.6011 16.5183 15.6011 17.3737V21.7132C15.6011 22.0541 15.322 22.3332 14.9812 22.3332H13.1214C12.7805 22.3332 12.5015 22.0541 12.5015 21.7132V13.6541C12.5015 13.3133 12.7805 13.0342 13.1214 13.0342H14.9812C15.322 13.0342 15.6011 13.3133 15.6011 13.6541V14.051C16.221 13.2479 17.2472 12.7246 18.3904 12.7246C20.1012 12.7246 21.7997 13.9645 21.7997 16.4442Z"
          fill="currentColor"/>
</svg>
